<svg width="20" height="22" viewBox="0 0 20 22" fill="none" xmlns="http://www.w3.org/2000/svg">
<path d="M2 22C1.45 22 0.979167 21.8042 0.5875 21.4125C0.195833 21.0208 0 20.55 0 20C0 19.45 0.195833 18.9792 0.5875 18.5875C0.979167 18.1958 1.45 18 2 18H18C18.55 18 19.0208 18.1958 19.4125 18.5875C19.8042 18.9792 20 19.45 20 20C20 20.55 19.8042 21.0208 19.4125 21.4125C19.0208 21.8042 18.55 22 18 22H2ZM4 14H5.4L13.2 6.225L11.775 4.8L4 12.6V14ZM2 15V12.175C2 12.0417 2.025 11.9125 2.075 11.7875C2.125 11.6625 2.2 11.55 2.3 11.45L13.2 0.575C13.3833 0.391667 13.5958 0.25 13.8375 0.15C14.0792 0.05 14.3333 0 14.6 0C14.8667 0 15.125 0.05 15.375 0.15C15.625 0.25 15.85 0.4 16.05 0.6L17.425 2C17.625 2.18333 17.7708 2.4 17.8625 2.65C17.9542 2.9 18 3.15833 18 3.425C18 3.675 17.9542 3.92083 17.8625 4.1625C17.7708 4.40417 17.625 4.625 17.425 4.825L6.55 15.7C6.45 15.8 6.3375 15.875 6.2125 15.925C6.0875 15.975 5.95833 16 5.825 16H3C2.71667 16 2.47917 15.9042 2.2875 15.7125C2.09583 15.5208 2 15.2833 2 15Z" fill="#2A4BF6"/>
</svg>
