<svg xmlns="http://www.w3.org/2000/svg" width="24" height="24" viewBox="0 0 24 24" fill="none">
    <path d="M17 17.2L16.1 16.3C15.9167 16.1167 15.6833 16.025 15.4 16.025C15.1167 16.025 14.8833 16.1167 14.7 16.3C14.5167 16.4833 14.425 16.7167 14.425 17C14.425 17.2833 14.5167 17.5167 14.7 17.7L17.3 20.3C17.5 20.5 17.7333 20.6 18 20.6C18.2667 20.6 18.5 20.5 18.7 20.3L21.3 17.7C21.4833 17.5167 21.575 17.2833 21.575 17C21.575 16.7167 21.4833 16.4833 21.3 16.3C21.1167 16.1167 20.8833 16.025 20.6 16.025C20.3167 16.025 20.0833 16.1167 19.9 16.3L19 17.2V14.025C19 13.7417 18.9042 13.5042 18.7125 13.3125C18.5208 13.1208 18.2833 13.025 18 13.025C17.7167 13.025 17.4792 13.1208 17.2875 13.3125C17.0958 13.5042 17 13.7417 17 14.025V17.2ZM15 22H21C21.2833 22 21.5208 22.0958 21.7125 22.2875C21.9042 22.4792 22 22.7167 22 23C22 23.2833 21.9042 23.5208 21.7125 23.7125C21.5208 23.9042 21.2833 24 21 24H15C14.7167 24 14.4792 23.9042 14.2875 23.7125C14.0958 23.5208 14 23.2833 14 23C14 22.7167 14.0958 22.4792 14.2875 22.2875C14.4792 22.0958 14.7167 22 15 22ZM6 20C5.45 20 4.97917 19.8042 4.5875 19.4125C4.19583 19.0208 4 18.55 4 18V4C4 3.45 4.19583 2.97917 4.5875 2.5875C4.97917 2.19583 5.45 2 6 2H12.175C12.4417 2 12.6958 2.05 12.9375 2.15C13.1792 2.25 13.3917 2.39167 13.575 2.575L18.425 7.425C18.6083 7.60833 18.75 7.82083 18.85 8.0625C18.95 8.30417 19 8.55833 19 8.825V10.025C19 10.3083 18.9042 10.5458 18.7125 10.7375C18.5208 10.9292 18.2833 11.025 18 11.025C17.7167 11.025 17.4792 10.9292 17.2875 10.7375C17.0958 10.5458 17 10.3083 17 10.025V9H13.5C13.0833 9 12.7292 8.85417 12.4375 8.5625C12.1458 8.27083 12 7.91667 12 7.5V4H6V18H11C11.2833 18 11.5208 18.0958 11.7125 18.2875C11.9042 18.4792 12 18.7167 12 19C12 19.2833 11.9042 19.5208 11.7125 19.7125C11.5208 19.9042 11.2833 20 11 20H6Z" fill="#9B1006"/>
</svg>
